<svg xmlns="http://www.w3.org/2000/svg" viewBox="0 0 500 500"><g id="freepik--background-simple--inject-21"><path d="M436.16,284.25c5.73-31.11-5.4-64.81-28.53-86.4s-57.52-30.37-88.16-22.51c-18,4.62-35.49,14.62-54,12.35-24-2.95-40.3-25.16-53.58-45.41S171,101.92,147,99.08c-15.06-1.79-38,7.3-50,16.66C65.39,140.52,65.14,184.2,71.21,223.89S99,300.68,128,328.42c40.66,38.87,92.69,50.43,148.93,49.51s148.89-34.1,159.25-93.68" style="fill:#ebebeb"></path></g><g id="freepik--Carpet--inject-21"><ellipse cx="253.56" cy="371.11" rx="178.04" ry="75.91" style="fill:#f5f5f5"></ellipse><path d="M207.2,366.76c-4.74.82-9.64,1.7-13.63,4.39s-6.83,7.71-5.47,12.32c1.66,5.63,8.25,7.93,14,9.22a262.33,262.33,0,0,0,113.28.27c4.55-1,10-3.09,10.53-7.73.62-5.37-5.8-8.52-11.05-9.8a209.1,209.1,0,0,0-56.17-5.85" style="fill:#e0e0e0"></path><path d="M425.87,351.92c.08,0,.31.27.68.93a16.1,16.1,0,0,1,1.26,3.12,35.82,35.82,0,0,1,1,12.83c-.07,1.41-.35,2.87-.55,4.42s-.61,3.14-1.12,4.78a53.6,53.6,0,0,1-1.71,5.1l-1.16,2.61c-.38.89-.91,1.74-1.37,2.63a41.87,41.87,0,0,1-8,10.17,108.47,108.47,0,0,1-11.05,9A127,127,0,0,1,375,422.68a331.21,331.21,0,0,1-35.37,11.4,333.54,333.54,0,0,1-40.29,8l-10.72,1.24-2.7.31c-.91.1-1.82.14-2.73.21l-5.49.38c-7.34.65-14.82.67-22.37.86A336.35,336.35,0,0,1,171,434.44c-3.17-.84-6.31-1.62-9.38-2.49l-9-2.82-4.4-1.38c-1.46-.44-2.87-1-4.29-1.52l-8.33-3.06c-10.9-4-20.92-8.64-29.24-14.3a63.15,63.15,0,0,1-18.92-19.3,51.44,51.44,0,0,1-7.08-19.13,38.37,38.37,0,0,1,.14-12.85,19.64,19.64,0,0,1,.83-3.23c.24-.72.41-1.07.49-1s.1.41,0,1.15-.25,1.82-.31,3.25a44.57,44.57,0,0,0,.81,12.37A51.84,51.84,0,0,0,89.86,388a61.3,61.3,0,0,0,18.5,17.79c8.08,5.23,17.86,9.52,28.71,13.33l8.27,2.89c1.41.47,2.8,1,4.25,1.44l4.37,1.3,8.91,2.68c3,.82,6.15,1.55,9.27,2.35a345.18,345.18,0,0,0,83.18,10.09c7.45-.19,14.81-.2,22-.82l5.41-.36c.9-.07,1.79-.1,2.68-.2l2.67-.29L298.68,437a343.11,343.11,0,0,0,39.76-7.6,346.58,346.58,0,0,0,35-10.78,127.2,127.2,0,0,0,28.25-14.16,109.62,109.62,0,0,0,10.92-8.43,39.64,39.64,0,0,0,7.71-9.18c.46-.83,1-1.6,1.38-2.42l1.19-2.42a49.42,49.42,0,0,0,1.81-4.76c.56-1.54.89-3.07,1.28-4.51s.62-2.85.75-4.19a40.53,40.53,0,0,0,0-12.37,28.09,28.09,0,0,0-.74-3.15C425.85,352.35,425.79,352,425.87,351.92Z" style="fill:#e0e0e0"></path><path d="M405.81,366.63a4.9,4.9,0,0,1-.38-1.78,13.41,13.41,0,0,0-.4-2.17,20,20,0,0,0-.82-2.91l-.62-1.7c-.22-.6-.57-1.19-.87-1.82a34.24,34.24,0,0,0-2.33-4,50.51,50.51,0,0,0-7.81-8.49c-6.59-5.73-16-11.19-27.49-16a225.43,225.43,0,0,0-40.72-11.89,345.89,345.89,0,0,0-51.16-6.09,391.43,391.43,0,0,0-59.11,1.6c-10.36,1.09-20.92,2.65-31.59,4.82a243.22,243.22,0,0,0-32,8.73c-10.55,3.83-21.14,8.44-30.5,15a53.46,53.46,0,0,0-12.35,11.54l-1.23,1.69L105.33,355c-.17.3-.36.59-.52.9l-.43.93c-.27.62-.59,1.23-.83,1.87a21.28,21.28,0,0,0,0,15.82c.23.63.56,1.24.83,1.87l.43.93c.16.31.35.6.52.9l1.06,1.78,1.23,1.69A53.25,53.25,0,0,0,120,393.25c9.37,6.58,20,11.19,30.51,15a242.93,242.93,0,0,0,32,8.73c10.66,2.17,21.23,3.73,31.59,4.82a391.56,391.56,0,0,0,59.12,1.6,345.89,345.89,0,0,0,51.16-6.09,225.67,225.67,0,0,0,40.72-11.89c11.52-4.78,20.9-10.23,27.48-16a50.09,50.09,0,0,0,7.81-8.49,34.24,34.24,0,0,0,2.33-4c.3-.63.65-1.22.87-1.82l.62-1.7a20,20,0,0,0,.82-2.91,13.52,13.52,0,0,0,.4-2.16c.16-1.18.29-1.79.38-1.79s.14.61.15,1.83a11.15,11.15,0,0,1-.15,2.25,18.27,18.27,0,0,1-.59,3.08c-.17.57-.35,1.18-.53,1.82s-.51,1.27-.79,1.95a32.63,32.63,0,0,1-2.22,4.28,49.24,49.24,0,0,1-7.74,9.15c-6.61,6.16-16.08,12-27.71,17.13a220.07,220.07,0,0,1-41.1,12.81,339.61,339.61,0,0,1-51.69,6.8,387,387,0,0,1-59.83-1.13c-10.5-1-21.23-2.57-32.09-4.73a243.68,243.68,0,0,1-32.76-8.79c-10.86-3.91-21.8-8.61-31.79-15.59a58.37,58.37,0,0,1-13.53-12.68L102,382.87l-1.24-2.08c-.2-.35-.42-.69-.6-1.05l-.52-1.11c-.33-.75-.71-1.47-1-2.24a26.55,26.55,0,0,1,0-19.55c.29-.76.66-1.49,1-2.24l.52-1.11c.19-.36.41-.7.61-1.05l1.24-2.08,1.41-1.93A58.13,58.13,0,0,1,117,335.76c10-7,20.92-11.67,31.78-15.59a245.12,245.12,0,0,1,32.76-8.78c10.86-2.16,21.58-3.69,32.08-4.73a387,387,0,0,1,59.83-1.13,339.64,339.64,0,0,1,51.68,6.8,220.18,220.18,0,0,1,41.11,12.81c11.63,5.12,21.1,11,27.7,17.13a48.94,48.94,0,0,1,7.75,9.15,32.63,32.63,0,0,1,2.22,4.28c.28.68.59,1.31.79,1.95s.36,1.25.53,1.82a18.27,18.27,0,0,1,.59,3.08,11.19,11.19,0,0,1,.15,2.25Q405.95,366.63,405.81,366.63Z" style="fill:#ebebeb"></path><path d="M387.91,365.1c-.09,0-.22-.51-.38-1.48,0-.25-.07-.52-.13-.82s-.18-.61-.28-1-.21-.73-.32-1.13-.34-.8-.52-1.24a22,22,0,0,0-1.47-2.81c-.3-.5-.7-1-1.07-1.5-.18-.26-.38-.52-.57-.79l-.68-.77a36.22,36.22,0,0,0-3.15-3.2l-1.93-1.59c-.65-.55-1.41-1-2.13-1.57a76.19,76.19,0,0,0-10.52-6.09,124.63,124.63,0,0,0-13.46-5.43,216.68,216.68,0,0,0-34.49-8.44,336.47,336.47,0,0,0-42.9-4.28,384.55,384.55,0,0,0-49.48,1.21c-8.67.77-17.53,1.91-26.5,3.48A232.37,232.37,0,0,0,170.86,334a123.67,123.67,0,0,0-26.27,10.88,49.8,49.8,0,0,0-11.18,8.56c-.4.42-.74.87-1.11,1.3a11,11,0,0,0-1,1.35l-.94,1.39-.76,1.47a13.32,13.32,0,0,0,0,12.32l.77,1.47.94,1.39a11,11,0,0,0,1,1.35c.38.43.72.89,1.11,1.31a50.25,50.25,0,0,0,11.18,8.56,124,124,0,0,0,26.28,10.88,232.91,232.91,0,0,0,27.07,6.3c9,1.57,17.83,2.71,26.51,3.48a384.55,384.55,0,0,0,49.48,1.21,336.63,336.63,0,0,0,42.91-4.28,216.27,216.27,0,0,0,34.48-8.44A126,126,0,0,0,364.77,389,75,75,0,0,0,375.28,383c.73-.54,1.48-1,2.13-1.58l1.93-1.58a37.64,37.64,0,0,0,3.15-3.2l.68-.77.58-.79c.36-.52.76-1,1.06-1.5a20.76,20.76,0,0,0,1.47-2.81c.18-.44.36-.85.52-1.24l.32-1.13c.1-.35.19-.67.28-1s.09-.57.13-.82c.16-1,.29-1.48.38-1.48s.14.51.15,1.54c0,.25,0,.54,0,.86l-.17,1c-.06.38-.13.78-.2,1.22s-.28.87-.43,1.35a18.67,18.67,0,0,1-1.33,3.09c-.28.56-.66,1.08-1,1.66l-.56.88-.67.85a37.64,37.64,0,0,1-3.13,3.53l-1.93,1.75c-.66.61-1.41,1.13-2.15,1.73a72.9,72.9,0,0,1-10.6,6.67,120.14,120.14,0,0,1-13.6,6,209.59,209.59,0,0,1-34.82,9.33,328.91,328.91,0,0,1-43.35,5,376.76,376.76,0,0,1-50.09-.75c-8.8-.72-17.8-1.81-26.94-3.36a234.7,234.7,0,0,1-27.69-6.31A127.68,127.68,0,0,1,142,389.8a54.78,54.78,0,0,1-12.38-9.5c-.47-.49-.89-1-1.33-1.55a15.61,15.61,0,0,1-1.25-1.63l-1.16-1.73-1-1.88a18.5,18.5,0,0,1,0-16.85l1-1.87,1.17-1.73a14.35,14.35,0,0,1,1.25-1.63c.44-.51.86-1.06,1.32-1.55A55.17,55.17,0,0,1,142,340.39,127.13,127.13,0,0,1,169.4,329.1a232.57,232.57,0,0,1,27.68-6.31c9.14-1.55,18.14-2.64,26.94-3.36a376.63,376.63,0,0,1,50.08-.75,328.71,328.71,0,0,1,43.35,5A209.72,209.72,0,0,1,352.28,333a122.82,122.82,0,0,1,13.6,5.95,73.45,73.45,0,0,1,10.6,6.68c.73.59,1.49,1.12,2.14,1.73l1.93,1.75a36.43,36.43,0,0,1,3.14,3.53l.66.85.57.87c.35.58.73,1.11,1,1.66a20,20,0,0,1,1.33,3.1c.15.48.3.93.43,1.35s.14.84.2,1.22l.17,1c0,.32,0,.61,0,.86C388.05,364.59,388,365.1,387.91,365.1Z" style="fill:#ebebeb"></path></g><g id="freepik--Cat--inject-21"><path d="M284.64,326.38s10.53-11.82,21-9.65,12.3,4,12.3,4S334,317,334.18,319.06s-5,12.52-5,12.52a19.64,19.64,0,0,1,.53,18s12.46,11.61,6.9,14.57-17.43-.92-17.43-.92-24.49,23.66-46,28.13-47.65-6.77-56.64-15.91c-9.52-9.67-17.55-35.73-15.67-37.06,2.74-1.92-1.93-16.08,16-29S233.22,289,233.22,289l7-2.37s-7.19,22.29,3.22,36.59S272.32,344.4,284.64,326.38Z" style="fill:#F978B7"></path><g style="opacity:0.2"><path d="M305.49,316.49a10.51,10.51,0,0,0-5,3.87,7,7,0,0,0-.86,6.1,5.28,5.28,0,0,0,4.86,3.5c2.52-.07,5-2.18,7.32-1.1,1.41.67,2.06,2.31,3.25,3.32a4.54,4.54,0,0,0,6.63-1.21,5.53,5.53,0,0,0,0-4.83,11.34,11.34,0,0,0-3.12-3.87,23.25,23.25,0,0,0-13.54-5.49" style="fill:#fff"></path></g><path d="M204.3,335.69c-1.68-2.67-9-1-11.63.7s-4.33,4.53-6,7.19c-2.46,3.85-5.32,7.58-9.16,10.07s-8.8,3.6-13.07,2-7.2-5.82-9.89-9.65-5.84-7.83-10.37-9c-6.21-1.62-12.88,3.28-14.5,9.49s1,12.95,5.38,17.64c7.21,7.73,18.89,10.5,29.18,8s19.07-9.66,24.68-18.62c2.12-3.39,3.88-7.1,6.78-9.85s7.41-4.36,11-2.52" style="fill:#F978B7"></path><path d="M296.75,328.66a6,6,0,0,1-1.43,4.19c.38-.62-.24-1.36-.8-1.82s-1.19-1.17-.84-1.8c.54-1,2.34,0,3.11-.81" style="fill:#263238"></path><path d="M294.5,323.33c0,.08-.42.36-1.13.83a4.52,4.52,0,0,0-2,2.39,2.39,2.39,0,0,0,1.05,2.63c.7.42,1.26.38,1.26.48s-.57.26-1.45-.12a2.61,2.61,0,0,1-1.19-1.13,2.74,2.74,0,0,1-.23-2,4.4,4.4,0,0,1,2.34-2.59A3.24,3.24,0,0,1,294.5,323.33Z" style="fill:#263238"></path><path d="M302.17,338.16a1.17,1.17,0,1,1-.77.32" style="fill:#263238"></path><path d="M303.2,322.55a1.17,1.17,0,1,1-.77.32" style="fill:#263238"></path><circle cx="265.56" cy="299.99" r="36.58" style="fill:#455a64"></circle><path d="M288.1,338.75a36.34,36.34,0,0,0-8.79-23c-1.8-2.07-4-4-6.65-4.61s-5.91.58-6.83,3.17c-.85,2.43.5,5,1.59,7.35a40.85,40.85,0,0,1,2.88,25.93" style="fill:#F978B7"></path><path d="M287.48,338.43a4,4,0,0,1,0-.74c0-.48,0-1.18-.06-2.09a36.15,36.15,0,0,0-1.28-7.55,33.88,33.88,0,0,0-4.84-10.22,17.38,17.38,0,0,0-4.57-4.77,8.53,8.53,0,0,0-3.18-1.3,7,7,0,0,0-3.48.3,5.21,5.21,0,0,0-2.7,2.1,5.55,5.55,0,0,0-.68,3.27,33.14,33.14,0,0,0,1.7,6.46A65.6,65.6,0,0,1,271.19,335a25.9,25.9,0,0,1,0,7.73,17.68,17.68,0,0,1-.45,2.06,4,4,0,0,1-.25.69c-.06,0,.26-1,.48-2.78a27.29,27.29,0,0,0-.2-7.64,68.18,68.18,0,0,0-2.94-11l-1-3.15a15.7,15.7,0,0,1-.73-3.43,6,6,0,0,1,.75-3.61,5.77,5.77,0,0,1,3-2.34,7.47,7.47,0,0,1,3.77-.33,9.09,9.09,0,0,1,3.39,1.4,18,18,0,0,1,4.7,4.93,33.6,33.6,0,0,1,5.9,18.07c0,.92,0,1.63,0,2.11A3.25,3.25,0,0,1,287.48,338.43Z" style="fill:#263238"></path><path d="M270.43,319.57A17.21,17.21,0,0,1,268.6,317a17.58,17.58,0,0,1-1.82-2.61,9.18,9.18,0,0,1,3.65,5.22Z" style="fill:#263238"></path><path d="M272.86,317.14a12.66,12.66,0,0,1-2-2.41,12.39,12.39,0,0,1-1.83-2.54c.11-.11,1.21.8,2.28,2.19A6.87,6.87,0,0,1,272.86,317.14Z" style="fill:#263238"></path><path d="M275.76,316.36c-.17,0-.44-1.23-1.15-2.61s-1.55-2.36-1.43-2.48a4.45,4.45,0,0,1,1.94,2.22A4.34,4.34,0,0,1,275.76,316.36Z" style="fill:#263238"></path><path d="M211.07,334a15.93,15.93,0,0,0,6.32-16.22,3.74,3.74,0,0,1,0-2.85c.82-1.29,2.7-.63,4.2-.41,8.37,1.2,23.64.48,23.64.48,5.14-.48,13.14-1.32,13.14-1.32-3.85,6.45-13,11.3-19.95,11.19a35.81,35.81,0,0,1,7.11,8.32A28.07,28.07,0,0,1,249.77,351a21.41,21.41,0,0,1-9.32,15.44c-5.23,3.34-12.32,3.82-17.69.7" style="fill:#F978B7"></path><path d="M229.82,369.3a24.49,24.49,0,0,0,4.39-.6,19.67,19.67,0,0,0,10.06-6.57,20.91,20.91,0,0,0,4.94-12.1A25.68,25.68,0,0,0,249,345a28.73,28.73,0,0,0-1.19-5.25,31.17,31.17,0,0,0-2.17-5.22,30.45,30.45,0,0,0-7.39-9.35l-.54-.46.71,0a26.86,26.86,0,0,0,13.31-4.09,19.05,19.05,0,0,0,6.39-7l.29.41a216.4,216.4,0,0,1-41.64.53l.21-.27a19.8,19.8,0,0,1,.76,8.93,20.41,20.41,0,0,1-2,6.47,19.85,19.85,0,0,1-2.35,3.58c-.32.37-.58.64-.75.82l-.28.27a2.5,2.5,0,0,1,.23-.31c.16-.19.41-.47.71-.85a21.93,21.93,0,0,0,2.24-3.61,20.48,20.48,0,0,0,1.89-6.41,19.68,19.68,0,0,0-.83-8.76l-.1-.29.31,0a224.52,224.52,0,0,0,41.54-.68l.55-.07-.26.48a19.63,19.63,0,0,1-6.58,7.17,27.29,27.29,0,0,1-13.6,4.18l.16-.5a32.44,32.44,0,0,1,9.69,14.84,28.81,28.81,0,0,1,1.19,5.34,25.9,25.9,0,0,1,.17,5.18,21,21,0,0,1-.91,4.78,21.72,21.72,0,0,1-4.21,7.53,19.53,19.53,0,0,1-10.3,6.52c-.35.08-.68.17-1,.23l-.9.1-.76.1h-1.49Z" style="fill:#263238"></path><path d="M248.58,319.24a13.2,13.2,0,0,0,3.5-1.83c1.69-1.41,2.22-3.21,2.39-3.15s0,.49-.25,1.2a6.43,6.43,0,0,1-1.77,2.39,6.33,6.33,0,0,1-2.64,1.34C249.06,319.36,248.58,319.31,248.58,319.24Z" style="fill:#263238"></path><path d="M291.61,335.69c0,.07-.62,0-1.24-.64a2.75,2.75,0,0,1-.65-1.44,3.36,3.36,0,0,1,.33-1.89,4,4,0,0,1,2.63-2.11c.86-.19,1.4,0,1.39,0s-.52.09-1.27.37a4,4,0,0,0-2.23,2,2.77,2.77,0,0,0,.12,2.82C291.13,335.44,291.64,335.61,291.61,335.69Z" style="fill:#263238"></path><g style="opacity:0.30000000000000004"><path d="M331.26,318.38c1.16.05-2.67,3.95-4.28,5.71a3.67,3.67,0,0,1-2.28,1.44,3.47,3.47,0,0,1-2.05-.77,17.75,17.75,0,0,1-4.07-3.81l-.26-.31S328.84,318.27,331.26,318.38Z"></path></g><g style="opacity:0.30000000000000004"><path d="M326.19,352.89a16.14,16.14,0,0,0-6,8.31A19.42,19.42,0,0,0,331.56,363a2.82,2.82,0,0,0,2.07-1c.58-.88.1-2.07-.49-2.94-1.76-2.59-4.38-4.43-6.95-6.21"></path></g><path d="M289.25,361.58c-.09,0,.52-1.53,1.31-4a57.29,57.29,0,0,0,2.65-20c-.11-2.59-.31-4.19-.22-4.21a4.41,4.41,0,0,1,.26,1.11c.13.72.26,1.77.37,3.07a48.72,48.72,0,0,1-2.68,20.13,30.63,30.63,0,0,1-1.16,2.87A4.13,4.13,0,0,1,289.25,361.58Z" style="fill:#263238"></path><path d="M296.24,358.25c-.09,0,.16-1.36.41-3.55a50.56,50.56,0,0,0-1-17.05c-.49-2.15-.9-3.46-.81-3.49a3.22,3.22,0,0,1,.4.88c.23.58.51,1.44.81,2.51a41.42,41.42,0,0,1,1,17.21c-.17,1.09-.35,2-.51,2.57A2.88,2.88,0,0,1,296.24,358.25Z" style="fill:#263238"></path><path d="M293.35,321a6.46,6.46,0,0,1,.58,3.11,6.56,6.56,0,0,1-.41,3.13,13.86,13.86,0,0,1-.16-3.11A13.42,13.42,0,0,1,293.35,321Z" style="fill:#263238"></path><g style="opacity:0.2"><path d="M303.39,376.29c-.45-2.72-4.45-7.26-7.21-7.18s-5.29,1.42-7.77,2.63-5.19,2.33-7.92,1.94c-3.51-.51-6.24-3.39-9.67-4.3a11,11,0,0,0-8.63,1.62,18.28,18.28,0,0,0-5.9,6.74c-1.47,2.69-2.5,5.64-4.39,8.05s-5,4.68-8,3.89c0,0,19.2,6.24,34.68.56C290,386.08,303.39,376.29,303.39,376.29Z" style="fill:#fff"></path></g><g style="opacity:0.2"><path d="M285.49,326.58a7.1,7.1,0,0,0-7.7,9.4,13.3,13.3,0,0,1,.92,2.61c.24,1.74-.83,3.37-1.07,5.1a5,5,0,0,0,1.44,4.28,4.08,4.08,0,0,0,4.35.78c1.75-.79,2.6-2.78,3.09-4.63a27.71,27.71,0,0,0-1.16-17.48" style="fill:#fff"></path></g><g style="opacity:0.2"><path d="M211,369.24a24.76,24.76,0,0,0,20.7-5.29c2.92-2.48,5.31-5.83,5.77-9.64s-1.42-8-5-9.49c-4.75-2-10.31,1.37-15.26,0a18.21,18.21,0,0,1-5.57-3.25,13,13,0,0,0-5.76-2.81c-2.14-.27-4.6.72-5.31,2.77l0,1.74C202.75,350.41,206.66,359.57,211,369.24Z" style="fill:#fff"></path></g><g style="opacity:0.2"><path d="M151,372.44a8.24,8.24,0,0,0,9.73-8.72,6.27,6.27,0,0,0-.32-1.46c-1.29-3.51-4.38-6.49-8.09-6.92-2.2-.26-4.55.36-6.6-.48s-3.41-3.16-4.17-5.37-1.25-4.58-2.62-6.48-4-3.15-6.08-2c0,0-6.74,6-2.38,15.95C134,364.93,140.73,370.69,151,372.44Z" style="fill:#fff"></path></g><path d="M288.17,273.88a2.61,2.61,0,0,1-.33.63l-1.06,1.74a30.71,30.71,0,0,1-1.78,2.68c-.74,1-1.53,2.22-2.55,3.43l-1.56,1.93c-.54.67-1.17,1.32-1.79,2-1.21,1.41-2.65,2.78-4.14,4.25a87.07,87.07,0,0,1-10.64,8.5,86.12,86.12,0,0,1-11.93,6.56c-1.93.81-3.75,1.62-5.52,2.2-.88.3-1.72.63-2.55.88l-2.38.7c-1.51.48-2.92.74-4.14,1a31.42,31.42,0,0,1-3.16.62l-2,.31a3.68,3.68,0,0,1-.7.07,3.38,3.38,0,0,1,.69-.19l2-.41c.87-.16,1.93-.38,3.14-.71s2.6-.61,4.1-1.11l2.36-.73c.82-.26,1.65-.6,2.52-.91,1.75-.6,3.55-1.41,5.47-2.23a82.56,82.56,0,0,0,22.41-15c1.49-1.46,2.94-2.81,4.16-4.2.62-.68,1.25-1.32,1.81-2l1.57-1.9c1-1.19,1.85-2.36,2.61-3.36s1.37-1.88,1.85-2.62l1.15-1.67A4.73,4.73,0,0,1,288.17,273.88Z" style="fill:#263238"></path><path d="M261,301.5a8.61,8.61,0,0,1-.88-1.23c-.27-.41-.59-.92-.92-1.53s-.74-1.29-1.09-2.09a39.69,39.69,0,0,1-2.24-5.73,45.24,45.24,0,0,1-1.52-7.39,44.78,44.78,0,0,1-.16-7.53,40.73,40.73,0,0,1,.91-6.09c.17-.86.42-1.61.61-2.28a16.15,16.15,0,0,1,.56-1.7,7.91,7.91,0,0,1,.58-1.4c.11,0-.66,2.06-1.35,5.47a43,43,0,0,0-.78,6,43.71,43.71,0,0,0,1.66,14.74,43.05,43.05,0,0,0,2.1,5.71C259.85,299.64,261.05,301.44,261,301.5Z" style="fill:#263238"></path><path d="M270.76,292.92A5,5,0,0,1,270,292a24,24,0,0,1-1.81-2.74,30.53,30.53,0,0,1-2.1-4.41,35,35,0,0,1-1.61-5.76,35.58,35.58,0,0,1-.53-6,30.58,30.58,0,0,1,.41-4.87,23.73,23.73,0,0,1,.73-3.21,4.82,4.82,0,0,1,.41-1.13c.1,0-.38,1.67-.74,4.4a37.29,37.29,0,0,0-.28,4.8A39.19,39.19,0,0,0,265,279a38.11,38.11,0,0,0,1.55,5.69,33.8,33.8,0,0,0,2,4.39C269.81,291.49,270.85,292.85,270.76,292.92Z" style="fill:#263238"></path><path d="M279.86,284.55a10.58,10.58,0,0,1-1.81-2.45,24.35,24.35,0,0,1-2.73-6.83,24.05,24.05,0,0,1-.55-7.34,10.31,10.31,0,0,1,.55-3c.1,0-.08,1.16-.14,3a27.74,27.74,0,0,0,3.23,13.95C279.28,283.54,279.94,284.49,279.86,284.55Z" style="fill:#263238"></path><path d="M297.75,281.57a3.23,3.23,0,0,1-.33.67l-1.06,1.9c-.45.82-1,1.82-1.78,2.93s-1.53,2.42-2.55,3.76L290.47,293c-.54.74-1.17,1.47-1.79,2.24-1.22,1.57-2.66,3.12-4.16,4.77a99.32,99.32,0,0,1-10.71,9.75,100.32,100.32,0,0,1-12.11,8c-2,1-3.84,2.05-5.66,2.84-.9.4-1.76.83-2.61,1.18l-2.46,1c-1.55.65-3,1.09-4.27,1.53s-2.37.76-3.29,1l-2.09.55a3.44,3.44,0,0,1-.74.15,4.29,4.29,0,0,1,.71-.26l2.06-.66c.9-.27,2-.61,3.24-1.09s2.7-.92,4.23-1.6l2.43-1c.85-.36,1.7-.79,2.59-1.21,1.8-.8,3.64-1.83,5.6-2.87a104.76,104.76,0,0,0,12-7.94,105.92,105.92,0,0,0,10.68-9.67c1.49-1.63,2.94-3.16,4.17-4.7.62-.77,1.26-1.48,1.81-2.21l1.58-2.1c1-1.32,1.85-2.61,2.61-3.7s1.38-2.07,1.86-2.87.85-1.36,1.15-1.83A4.55,4.55,0,0,1,297.75,281.57Z" style="fill:#263238"></path><path d="M302.74,286.53a3.22,3.22,0,0,1-.23.7c-.2.51-.47,1.16-.79,2l-.58,1.43c-.23.51-.51,1.05-.79,1.64-.59,1.17-1.2,2.54-2.06,4L297,298.47c-.45.78-1,1.55-1.52,2.36-1,1.65-2.31,3.29-3.62,5a77.13,77.13,0,0,1-21.25,18.66c-1.91,1.07-3.7,2.13-5.47,2.94-.87.41-1.7.85-2.53,1.2l-2.4,1c-1.51.67-2.95,1.09-4.19,1.53-.62.2-1.19.41-1.73.57l-1.49.39-2.05.53a3.72,3.72,0,0,1-.73.14,3.75,3.75,0,0,1,.7-.26l2-.62,1.47-.44c.53-.18,1.09-.4,1.71-.62,1.22-.46,2.64-.91,4.13-1.6l2.37-1c.82-.36,1.64-.81,2.51-1.23,1.75-.82,3.52-1.89,5.4-3a78.84,78.84,0,0,0,21.11-18.53c1.32-1.73,2.6-3.34,3.64-5,.53-.81,1.08-1.56,1.54-2.33l1.32-2.22c.88-1.39,1.5-2.74,2.12-3.89.29-.58.59-1.12.83-1.62s.43-1,.63-1.4c.36-.79.65-1.43.88-1.92A4.9,4.9,0,0,1,302.74,286.53Z" style="fill:#263238"></path><path d="M256.6,293a34.51,34.51,0,0,1-3.39-1.3,70,70,0,0,0-16.9-4.34,33.78,33.78,0,0,1-3.6-.49,3.18,3.18,0,0,1,1-.06c.63,0,1.54.05,2.66.14a54.7,54.7,0,0,1,17,4.37c1,.46,1.85.86,2.41,1.16A3.36,3.36,0,0,1,256.6,293Z" style="fill:#263238"></path><path d="M255.55,280.57c-.08.16-3.34-1.55-7.65-2.86s-8-1.74-8-1.92a8.6,8.6,0,0,1,2.42.13,35.44,35.44,0,0,1,11.11,3.4A8.19,8.19,0,0,1,255.55,280.57Z" style="fill:#263238"></path><path d="M252.27,304.17a26.53,26.53,0,0,1-3.1-1.12,67.12,67.12,0,0,0-7.58-2.29,65.73,65.73,0,0,0-7.81-1.34,26.85,26.85,0,0,1-3.27-.4,14.7,14.7,0,0,1,3.31,0,48.22,48.22,0,0,1,15.5,3.67A13.74,13.74,0,0,1,252.27,304.17Z" style="fill:#263238"></path><path d="M211.66,300.13c0-.06.8,0,2.17-.41a12.83,12.83,0,0,0,5.16-3,24.4,24.4,0,0,0,5.17-7.23c1.57-3,3-6.49,5.34-9.69a34.69,34.69,0,0,1,7.83-7.85,35.28,35.28,0,0,1,8-4.31,33.38,33.38,0,0,1,5.87-1.65c.71-.13,1.27-.18,1.65-.23a2.05,2.05,0,0,1,.57,0,18,18,0,0,1-2.17.48,37.39,37.39,0,0,0-5.77,1.81,36.56,36.56,0,0,0-7.8,4.36,35.12,35.12,0,0,0-7.67,7.76c-2.3,3.13-3.73,6.6-5.34,9.6a24,24,0,0,1-5.37,7.28,12.46,12.46,0,0,1-5.37,2.89,8.6,8.6,0,0,1-1.65.22A2.17,2.17,0,0,1,211.66,300.13Z" style="fill:#455a64"></path><path d="M283.78,293.9c-.08-.09,1.77-1.34,4.15-4a30,30,0,0,0,6.54-12A12.85,12.85,0,0,0,295,274a5.88,5.88,0,0,0-1.05-3.33,4.67,4.67,0,0,0-2.6-1.72,7.08,7.08,0,0,0-2.8-.14,14.77,14.77,0,0,0-3.95,1.32,8.72,8.72,0,0,1-1.43.62,8.32,8.32,0,0,1,1.33-.82,13.54,13.54,0,0,1,4-1.52,7.42,7.42,0,0,1,3,.08,5.1,5.1,0,0,1,2.91,1.86,6.55,6.55,0,0,1,1.19,3.62,13.26,13.26,0,0,1-.49,4,28.76,28.76,0,0,1-6.8,12.16,24.78,24.78,0,0,1-3.16,2.85A6.74,6.74,0,0,1,283.78,293.9Z" style="fill:#455a64"></path></g></svg>